<svg width="64" height="64" viewBox="0 0 64 64" fill="none" xmlns="http://www.w3.org/2000/svg">
<g clip-path="url(#clip0_15_415)">
<mask id="mask0_15_415" style="mask-type:luminance" maskUnits="userSpaceOnUse" x="0" y="0" width="64" height="64">
<path d="M0 0H64V64H0V0Z" fill="white"/>
</mask>
<g mask="url(#mask0_15_415)">
<path d="M24.0787 27.9444C22.729 26.5948 20.5408 26.5948 19.1912 27.9444C17.8415 29.2941 17.8415 31.4823 19.1912 32.832L25.6704 39.3112C27.02 40.6608 29.2082 40.6608 30.5578 39.3112L42.9649 26.9042C44.3145 25.5545 44.3145 23.3664 42.9649 22.0166C41.6152 20.667 39.427 20.667 38.0773 22.0166L28.1141 31.9799L24.0787 27.9444Z" fill="#51FF48"/>
<path fill-rule="evenodd" clip-rule="evenodd" d="M30.3196 0C13.5745 0 0 13.5745 0 30.3196C0 47.0647 13.5745 60.6394 30.3196 60.6394C37.1208 60.6394 43.4034 58.3963 48.4605 54.6152L56.5706 62.7254C58.2702 64.4248 61.0258 64.4248 62.7254 62.7254C64.4248 61.0258 64.4248 58.2702 62.7254 56.5706L54.6152 48.4605C58.3963 43.4034 60.6394 37.1208 60.6394 30.3196C60.6394 13.5745 47.0647 0 30.3196 0ZM8.704 30.3196C8.704 18.3817 18.3817 8.704 30.3196 8.704C42.2577 8.704 51.9354 18.3817 51.9354 30.3196C51.9354 36.2899 49.5206 41.6878 45.6042 45.6042C41.6878 49.5206 36.2899 51.9354 30.3196 51.9354C18.3817 51.9354 8.704 42.2577 8.704 30.3196Z" fill="#51FF48"/>
</g>
</g>
<defs>
<clipPath id="clip0_15_415">
<rect width="64" height="64" fill="white"/>
</clipPath>
</defs>
</svg>
