<svg width="64" height="64" viewBox="0 0 64 64" fill="none" xmlns="http://www.w3.org/2000/svg">
<path d="M31.0819 42.5947L42.967 59.5663C43.8028 60.7598 42.949 62.4 41.492 62.4C40.9045 62.4 40.3539 62.1134 40.0169 61.6321L29.4848 46.5907V60.5992C29.4848 61.5938 28.6786 62.4 27.684 62.4C26.6895 62.4 25.8832 61.5938 25.8832 60.5992V46.5907L15.3511 61.6321C15.0141 62.1134 14.4635 62.4 13.876 62.4H13.8696C12.4125 62.4 11.5587 60.7598 12.3945 59.5663L24.2797 42.5947H31.0819Z" fill="#51FF48"/>
<path d="M27.0337 10.329C27.0337 5.51843 30.9523 1.59998 35.77 1.59998C36.3915 1.59998 36.9982 1.66566 37.5831 1.79006C41.5821 2.5795 44.6087 6.10333 44.6087 10.329C44.6087 14.5619 41.5821 18.0931 37.5758 18.8752C36.9909 18.9996 36.3915 19.0654 35.77 19.0654C30.9523 19.0654 27.0337 15.1468 27.0337 10.329Z" fill="#51FF48"/>
<path d="M11.2571 12.3394C11.2571 9.33478 13.2529 6.79066 15.9944 5.96445C16.6378 5.75241 17.3323 5.64282 18.0487 5.64282C21.7407 5.64282 24.7454 8.64762 24.7454 12.3394C24.7454 16.0314 21.7407 19.0362 18.0487 19.0362C17.3323 19.0362 16.6378 18.9191 15.9871 18.707C13.2529 17.881 11.2571 15.3369 11.2571 12.3394Z" fill="#51FF48"/>
<path d="M11.0741 21.3022H44.2872C45.5396 21.3022 46.5549 22.3175 46.5549 23.5699V40.9737C46.5549 42.2261 45.5396 43.2413 44.2872 43.2413H11.0741C9.82167 43.2413 8.8064 42.2261 8.8064 40.9737V23.5699C8.8064 22.3175 9.82167 21.3022 11.0741 21.3022Z" fill="#51FF48"/>
<path d="M55.1935 27.6543V36.8894C55.1935 38.4368 53.6779 39.5298 52.2097 39.0411L46.1799 37.0341V27.5097L52.2097 25.5027C53.6779 25.014 55.1935 26.1069 55.1935 27.6543Z" fill="#51FF48"/>
</svg>
