<svg width="64" height="64" viewBox="0 0 64 64" fill="none" xmlns="http://www.w3.org/2000/svg">
<path d="M53.491 10.5091C47.9819 5.01829 40.391 1.6092 32.0001 1.6001C15.2092 1.6001 1.6001 15.2092 1.6001 32C1.6001 48.7909 15.2092 62.4 32.0001 62.4C48.791 62.4 62.4001 48.7909 62.4001 32C62.391 23.6091 58.9819 16.0182 53.491 10.5091ZM46.0728 28.6455C46.0183 28.9818 45.8546 29.2819 45.6092 29.5182L39.8819 34.9819L41.1183 42.8C41.2546 43.6365 40.691 44.4272 39.8547 44.5637C39.5183 44.6182 39.1637 44.5546 38.8637 44.391L31.891 40.6273L24.8365 44.2273C24.0819 44.6091 23.1547 44.3092 22.7638 43.5546C22.6092 43.2546 22.5546 42.9091 22.6183 42.5728L24.0547 34.7819L18.4456 29.1728C17.8546 28.5637 17.8637 27.5909 18.4728 26.9909C18.7092 26.7637 19.0183 26.6092 19.3456 26.5637L27.2001 25.5182L30.7819 18.4637C31.1637 17.7001 32.091 17.3909 32.8546 17.7727C33.1638 17.9273 33.4092 18.1819 33.5547 18.5L36.9728 25.6455L44.791 26.8728C45.6365 27.0091 46.2092 27.8091 46.0728 28.6455ZM53.491 10.5091C47.9819 5.01829 40.391 1.6092 32.0001 1.6001C15.2092 1.6001 1.6001 15.2092 1.6001 32C1.6001 48.7909 15.2092 62.4 32.0001 62.4C48.791 62.4 62.4001 48.7909 62.4001 32C62.391 23.6091 58.9819 16.0182 53.491 10.5091ZM46.0728 28.6455C46.0183 28.9818 45.8546 29.2819 45.6092 29.5182L39.8819 34.9819L41.1183 42.8C41.2546 43.6365 40.691 44.4272 39.8547 44.5637C39.5183 44.6182 39.1637 44.5546 38.8637 44.391L31.891 40.6273L24.8365 44.2273C24.0819 44.6091 23.1547 44.3092 22.7638 43.5546C22.6092 43.2546 22.5546 42.9091 22.6183 42.5728L24.0547 34.7819L18.4456 29.1728C17.8546 28.5637 17.8637 27.5909 18.4728 26.9909C18.7092 26.7637 19.0183 26.6092 19.3456 26.5637L27.2001 25.5182L30.7819 18.4637C31.1637 17.7001 32.091 17.3909 32.8546 17.7727C33.1638 17.9273 33.4092 18.1819 33.5547 18.5L36.9728 25.6455L44.791 26.8728C45.6365 27.0091 46.2092 27.8091 46.0728 28.6455ZM53.491 10.5091C47.9819 5.01829 40.391 1.6092 32.0001 1.6001C15.2092 1.6001 1.6001 15.2092 1.6001 32C1.6001 48.7909 15.2092 62.4 32.0001 62.4C48.791 62.4 62.4001 48.7909 62.4001 32C62.391 23.6091 58.9819 16.0182 53.491 10.5091ZM46.0728 28.6455C46.0183 28.9818 45.8546 29.2819 45.6092 29.5182L39.8819 34.9819L41.1183 42.8C41.2546 43.6365 40.691 44.4272 39.8547 44.5637C39.5183 44.6182 39.1637 44.5546 38.8637 44.391L31.891 40.6273L24.8365 44.2273C24.0819 44.6091 23.1547 44.3092 22.7638 43.5546C22.6092 43.2546 22.5546 42.9091 22.6183 42.5728L24.0547 34.7819L18.4456 29.1728C17.8546 28.5637 17.8637 27.5909 18.4728 26.9909C18.7092 26.7637 19.0183 26.6092 19.3456 26.5637L27.2001 25.5182L30.7819 18.4637C31.1637 17.7001 32.091 17.3909 32.8546 17.7727C33.1638 17.9273 33.4092 18.1819 33.5547 18.5L36.9728 25.6455L44.791 26.8728C45.6365 27.0091 46.2092 27.8091 46.0728 28.6455Z" fill="#51FF48"/>
</svg>
