<svg width="64" height="64" viewBox="0 0 64 64" fill="none" xmlns="http://www.w3.org/2000/svg">
<g clip-path="url(#clip0_15_427)">
<path d="M0 56.5H26.25V64H0V56.5Z" fill="#51FF48"/>
<path d="M54.625 0H35.875C30.7059 0 26.5 4.20588 26.5 9.375V13.125C26.5 17.6533 29.7264 21.4399 34 22.3114V27.409L43.8181 22.5H54.625C59.7941 22.5 64 18.2941 64 13.125V9.375C64 4.20588 59.7941 0 54.625 0ZM39.625 13.125H35.875V9.375H39.625V13.125ZM47.125 13.125H43.375V9.375H47.125V13.125ZM54.625 13.125H50.875V9.375H54.625V13.125Z" fill="#51FF48"/>
<path d="M39.4014 34.0482C39.4014 31.977 37.7225 30.2981 35.6514 30.2981H20.6514C11.346 30.2981 3.77637 37.8678 3.77637 47.1731V52.75H22.5264V50.9231C22.5264 49.8886 23.3669 49.0481 24.4014 49.0481H35.6514C38.4986 49.0481 41.2196 48.1418 43.5249 46.4243C54.2269 38.4225 50.6122 41.1359 57.7215 35.7788C59.3745 34.533 59.705 32.183 58.4591 30.5298C57.2135 28.8765 54.8631 28.5463 53.2101 29.7921C51.913 30.7695 53.9917 29.2105 39.024 40.4239L39.0152 40.4124C37.9329 41.164 36.7764 41.5482 35.6511 41.5482H22.5261L22.5259 37.7982H35.6511C37.7225 37.7982 39.4014 36.119 39.4014 34.0482Z" fill="#51FF48"/>
</g>
<defs>
<clipPath id="clip0_15_427">
<rect width="64" height="64" fill="white"/>
</clipPath>
</defs>
</svg>
