<svg width="64" height="64" viewBox="0 0 64 64" fill="none" xmlns="http://www.w3.org/2000/svg">
<path d="M56.1446 25.635H52.4362C51.0236 25.635 49.8786 26.78 49.8786 28.1926V34.2028H46.578V4.15754C46.578 2.745 45.433 1.59998 44.0205 1.59998C42.6079 1.59998 41.4629 2.745 41.4629 4.15754V7.85389H22.409V4.15754C22.409 2.745 21.264 1.59998 19.8515 1.59998C18.4389 1.59998 17.2939 2.745 17.2939 4.15754V34.2028H13.9933V28.1926C13.9933 26.78 12.8483 25.635 11.4358 25.635H7.85517C6.44263 25.635 5.29761 26.78 5.29761 28.1926C5.29761 29.6051 6.44263 30.7501 7.85517 30.7501H8.87819V36.7604C8.87819 38.1729 10.0232 39.318 11.4358 39.318H19.5419L28.4468 48.223L18.6359 58.034C17.637 59.0328 17.637 60.6523 18.6359 61.651C19.1352 62.1504 19.7897 62.4 20.4443 62.4C21.0989 62.4 21.7534 62.1504 22.2528 61.651L32.0638 51.8401L41.8748 61.651C42.3742 62.1504 43.0288 62.4 43.6834 62.4C44.338 62.4 44.9925 62.1504 45.492 61.651C46.4908 60.6521 46.4908 59.0327 45.492 58.034L35.681 48.223L44.5859 39.318H52.4362C53.8487 39.318 54.9937 38.1729 54.9937 36.7604V30.7501H56.1446C57.5572 30.7501 58.7022 29.6051 58.7022 28.1926C58.7022 26.78 57.5572 25.635 56.1446 25.635ZM31.9999 34.2028H27.9078H22.409V20.0387H41.4629V34.2028H31.9999ZM32.0638 44.606L26.7758 39.318H27.9078H31.9999H37.3519L32.0638 44.606Z" fill="#51FF48"/>
</svg>
