<svg width="64" height="64" viewBox="0 0 64 64" fill="none" xmlns="http://www.w3.org/2000/svg">
<g clip-path="url(#clip0_15_423)">
<path d="M46 5.3335H42.6665V2.6665C42.6665 1.19482 41.4746 0 40 0C38.5254 0 37.3335 1.19482 37.3335 2.6665V5.3335H16V2.6665C16 1.19482 14.8081 0 13.3335 0C11.8589 0 10.6665 1.19482 10.6665 2.6665V5.3335H7.3335C3.28809 5.3335 0 8.62109 0 12.6665V42.6665C0 47.0771 3.58936 50.6665 8 50.6665H21.3335C22.8081 50.6665 24 49.4722 24 48C24 46.5278 22.8081 45.3335 21.3335 45.3335H8C6.52783 45.3335 5.3335 44.1362 5.3335 42.6665V21.3335H48C48 22.8052 49.1919 24 50.6665 24C52.1411 24 53.3335 22.8052 53.3335 21.3335V12.6665C53.3335 8.62109 50.0454 5.3335 46 5.3335Z" fill="#51FF48"/>
<path d="M46.6665 29.3335C37.1094 29.3335 29.3335 37.1094 29.3335 46.6665C29.3335 56.2241 37.1094 64 46.6665 64C56.2241 64 64 56.2241 64 46.6665C64 37.1094 56.2241 29.3335 46.6665 29.3335ZM54.6826 43.7466L46.0161 53.7466C45.5308 54.3066 44.8345 54.6372 44.0962 54.6665C44.064 54.6665 44.0322 54.6665 44 54.6665C43.2935 54.6665 42.6162 54.3867 42.1147 53.8853L37.4482 49.2188C36.4053 48.1758 36.4053 46.4907 37.4482 45.4482C38.4907 44.4053 40.1758 44.4053 41.2188 45.4482L43.8613 48.0908L50.6509 40.2559C51.6162 39.1411 53.3013 39.0269 54.4136 39.9868C55.5254 40.9492 55.6455 42.6348 54.6826 43.7466Z" fill="#51FF48"/>
</g>
<defs>
<clipPath id="clip0_15_423">
<rect width="64" height="64" fill="white"/>
</clipPath>
</defs>
</svg>
