<svg width="64" height="64" viewBox="0 0 64 64" fill="none" xmlns="http://www.w3.org/2000/svg">
<path d="M58.1441 17.104L47.2001 25.92V16.8C47.2001 14.976 45.9841 13.76 44.1601 13.76H4.6401C2.8161 13.76 1.6001 14.976 1.6001 16.8V47.2C1.6001 49.024 2.8161 50.24 4.6401 50.24H44.1601C45.9841 50.24 47.2001 49.024 47.2001 47.2V38.08L58.1441 46.896C59.9681 48.112 62.4001 47.2 62.4001 44.768V19.232C62.4001 17.104 59.9681 15.888 58.1441 17.104ZM19.8401 39.84V24.16C19.8401 23.6326 20.4422 23.3316 20.8641 23.648L31.3174 31.488C31.6588 31.744 31.6588 32.256 31.3174 32.512L20.8641 40.352C20.4422 40.6684 19.8401 40.3674 19.8401 39.84Z" fill="#51FF48"/>
</svg>
