<svg width="94" height="50" viewBox="0 0 94 50" fill="none" xmlns="http://www.w3.org/2000/svg">
<path d="M0 25.7542V5.6281H3.69203V22.5124H12.3143V25.7542H0Z" fill="black"/>
<path d="M14.3628 9.41018V5.6281H17.9198V9.41018H14.3628ZM14.3628 25.7542V11.0536H17.9198V25.7542H14.3628Z" fill="black"/>
<path d="M28.3206 31.6974C27.2175 31.6974 26.2044 31.5173 25.2589 31.1571C24.3134 30.7969 23.5254 30.3017 22.85 29.6488C22.1747 29.0185 21.6794 28.253 21.3868 27.3976L24.6736 26.1594C24.8987 26.8348 25.3264 27.3976 25.9568 27.8253C26.5871 28.253 27.375 28.4557 28.298 28.4557C29.0184 28.4557 29.6488 28.3206 30.2116 28.0504C30.7744 27.7803 31.2021 27.3976 31.5173 26.8798C31.8325 26.362 31.9901 25.7542 31.9901 25.0338V21.6794L32.6429 22.4899C32.1477 23.3679 31.4723 24.0432 30.6393 24.4935C29.8064 24.9437 28.8383 25.1688 27.7352 25.1688C26.3845 25.1688 25.1688 24.8537 24.0882 24.2233C23.0076 23.593 22.1522 22.7375 21.5443 21.6344C20.9365 20.5313 20.6213 19.2931 20.6213 17.9424C20.6213 16.5916 20.9365 15.3309 21.5443 14.2503C22.1522 13.1697 23.0076 12.3143 24.0657 11.7064C25.1238 11.0761 26.3395 10.7834 27.6902 10.7834C28.7933 10.7834 29.7614 11.0086 30.5718 11.4813C31.4048 11.9316 32.1026 12.6069 32.6429 13.4624L32.1927 14.3629V11.1211H35.547V25.0788C35.547 26.362 35.2319 27.5101 34.624 28.5007C33.9937 29.5137 33.1607 30.3017 32.0801 30.887C30.9995 31.4723 29.7614 31.7425 28.3656 31.7425L28.3206 31.6974ZM28.163 21.9046C28.9284 21.9046 29.5813 21.747 30.1441 21.4093C30.7069 21.0716 31.1571 20.6213 31.4723 20.0135C31.7875 19.4282 31.9676 18.7303 31.9676 17.9649C31.9676 17.1995 31.81 16.5241 31.4723 15.9388C31.1346 15.3534 30.6844 14.8807 30.1216 14.543C29.5588 14.2053 28.9059 14.0252 28.163 14.0252C27.4201 14.0252 26.7672 14.2053 26.1594 14.543C25.574 14.8807 25.1013 15.3534 24.7636 15.9388C24.4259 16.5241 24.2683 17.1995 24.2683 17.9649C24.2683 18.7303 24.4259 19.4057 24.7636 19.991C25.1013 20.5763 25.5515 21.0491 26.1369 21.3868C26.7222 21.7245 27.3976 21.9046 28.1405 21.9046H28.163Z" fill="black"/>
<path d="M38.7664 25.7542V5.31293H42.3233V13.9577L41.828 13.4399C42.1657 12.5619 42.7285 11.8865 43.5165 11.4363C44.3044 10.986 45.2049 10.7384 46.263 10.7384C47.3211 10.7384 48.3116 10.9635 49.1446 11.4363C49.9775 11.9091 50.6304 12.5619 51.1031 13.3949C51.5759 14.2278 51.801 15.1959 51.801 16.299V25.7542H48.2666V17.1319C48.2666 16.4791 48.1315 15.9163 47.8839 15.466C47.6362 15.0158 47.276 14.6331 46.8483 14.3854C46.398 14.1378 45.8803 14.0027 45.2949 14.0027C44.7096 14.0027 44.2144 14.1378 43.7641 14.3854C43.3139 14.6331 42.9537 14.9933 42.706 15.466C42.4584 15.9388 42.3233 16.5016 42.3233 17.1319V25.7542H38.7664Z" fill="black"/>
<path d="M61.5038 25.9118C59.8379 25.9118 58.5547 25.4615 57.6317 24.5385C56.7087 23.638 56.2585 22.3548 56.2585 20.6889V14.2053H53.7371V11.0536H54.0072C54.7276 11.0536 55.2904 10.8735 55.6731 10.4908C56.0558 10.1081 56.2585 9.56776 56.2585 8.84737V7.72175H59.8154V11.0761H63.1922V14.2278H59.8154V20.5313C59.8154 21.0266 59.9054 21.4318 60.063 21.7695C60.2431 22.1072 60.5133 22.3773 60.8735 22.5574C61.2337 22.7375 61.7064 22.8276 62.2918 22.8276C62.4268 22.8276 62.5619 22.8276 62.742 22.805C62.9221 22.805 63.0797 22.76 63.2373 22.76V25.7767C62.9896 25.8217 62.697 25.8442 62.3818 25.8892C62.0667 25.9343 61.7515 25.9343 61.4813 25.9343L61.5038 25.9118Z" fill="black"/>
<path d="M40.8149 50C39.5542 50 38.3835 49.7749 37.2804 49.3021C36.1998 48.8294 35.2543 48.1765 34.4664 47.3435C33.6784 46.5106 33.0931 45.52 32.7329 44.4169L35.8171 43.0887C36.3124 44.2368 37.0103 45.1373 37.9333 45.8127C38.8563 46.4656 39.8918 46.8033 41.04 46.8033C41.6928 46.8033 42.2556 46.6907 42.7284 46.4881C43.2012 46.2855 43.5839 45.9928 43.8315 45.6326C44.1017 45.2724 44.2142 44.8447 44.2142 44.3269C44.2142 43.7416 44.0341 43.2463 43.6965 42.8636C43.3363 42.4809 42.8185 42.1882 42.1206 41.9406L38.2485 40.7024C36.6726 40.2071 35.502 39.4867 34.6915 38.5187C33.8811 37.5507 33.4984 36.4025 33.4984 35.0743C33.4984 33.9262 33.791 32.9131 34.3538 32.0126C34.9391 31.1346 35.7271 30.4367 36.7401 29.9415C37.7532 29.4462 38.9238 29.1986 40.2295 29.1986C41.4452 29.1986 42.5483 29.4012 43.5614 29.8289C44.5744 30.2566 45.4299 30.842 46.1728 31.5849C46.8932 32.3278 47.456 33.2058 47.8162 34.2188L44.7545 35.5696C44.3718 34.579 43.7865 33.8136 42.976 33.2508C42.1656 32.688 41.2651 32.4178 40.2295 32.4178C39.6217 32.4178 39.0814 32.5304 38.6086 32.733C38.1359 32.9356 37.7757 33.2283 37.5056 33.611C37.2354 33.9937 37.1228 34.4214 37.1228 34.9167C37.1228 35.4795 37.3029 35.9748 37.6631 36.38C38.0233 36.7852 38.5636 37.1229 39.3066 37.3706L42.9986 38.5412C44.597 39.059 45.8126 39.7794 46.6005 40.7024C47.411 41.6254 47.7937 42.751 47.7937 44.1018C47.7937 45.2499 47.501 46.263 46.8932 47.1635C46.3079 48.0414 45.4749 48.7393 44.4394 49.2346C43.4038 49.7299 42.1656 50 40.7698 50H40.8149Z" fill="black"/>
<path d="M50.8103 49.6848V29.2436H54.3673V37.8883L53.872 37.3706C54.2097 36.4926 54.7725 35.8172 55.5604 35.367C56.3483 34.9167 57.2488 34.6691 58.3069 34.6691C59.365 34.6691 60.3555 34.8942 61.1885 35.367C62.0215 35.8397 62.6743 36.4926 63.1471 37.3255C63.6199 38.1585 63.845 39.1265 63.845 40.2296V49.6848H60.3105V41.0626C60.3105 40.4097 60.1755 39.8469 59.9278 39.3967C59.6802 38.9464 59.32 38.5637 58.8923 38.3161C58.442 38.0684 57.9242 37.9334 57.3389 37.9334C56.7536 37.9334 56.2583 38.0684 55.8081 38.3161C55.3578 38.5637 54.9976 38.9239 54.75 39.3967C54.5023 39.8694 54.3673 40.4322 54.3673 41.0626V49.6848H50.8103Z" fill="black"/>
<path d="M66.8167 33.3408V29.5588H70.3736V33.3408H66.8167ZM66.8167 49.6848V34.9842H70.3736V49.6848H66.8167Z" fill="black"/>
<path d="M75.3714 49.6848V38.1585H72.7825V35.0068H75.3714V34.5565C75.3714 33.4309 75.5965 32.4629 76.0468 31.6749C76.497 30.887 77.1499 30.3017 77.9828 29.8739C78.8158 29.4687 79.8063 29.2436 80.9319 29.2436C81.1571 29.2436 81.3822 29.2436 81.6523 29.2886C81.9225 29.3111 82.1251 29.3562 82.3052 29.3787V32.4403C82.1251 32.3953 81.9675 32.3728 81.8099 32.3728C81.6523 32.3728 81.5173 32.3728 81.3822 32.3728C80.5942 32.3728 79.9864 32.5529 79.5362 32.8906C79.1084 33.2508 78.8833 33.7911 78.8833 34.5565V35.0068H82.1476V38.1585H78.8833V49.6848H75.3489H75.3714Z" fill="black"/>
<path d="M92.008 49.8424C90.3421 49.8424 89.0588 49.3922 88.1358 48.4692C87.2128 47.5687 86.7626 46.2855 86.7626 44.6195V38.136H84.2412V34.9842H84.5113C85.2317 34.9842 85.7946 34.8041 86.1773 34.4214C86.56 34.0387 86.7626 33.4984 86.7626 32.778V31.6524H90.3195V35.0068H93.6964V38.1585H90.3195V44.462C90.3195 44.9572 90.4096 45.3625 90.5672 45.7001C90.7473 46.0378 91.0174 46.308 91.3776 46.4881C91.7378 46.6682 92.2106 46.7582 92.7959 46.7582C92.931 46.7582 93.0661 46.7582 93.2462 46.7357C93.4263 46.7357 93.5838 46.6907 93.7414 46.6907V49.7073C93.4938 49.7524 93.2011 49.7749 92.886 49.8199C92.5708 49.8649 92.2556 49.8649 91.9855 49.8649L92.008 49.8424Z" fill="black"/>
<path d="M86.8751 19.9685L88.9013 26.1369H72.4897L74.5159 19.9685H86.8751Z" fill="black"/>
<path d="M74.5159 6.16839L72.4897 0H88.9013L86.8751 6.16839H74.5159Z" fill="black"/>
<path d="M87.5957 6.88879L93.7641 4.86267V21.2742L87.5957 19.2481V6.88879Z" fill="black"/>
<path d="M73.7956 19.2481L67.6272 21.2742V4.86267L73.7956 6.88879V19.2481Z" fill="black"/>
<circle cx="80.6956" cy="13.0684" r="4.29811" fill="#51FF48"/>
</svg>
